<svg xmlns="http://www.w3.org/2000/svg">
    <symbol id="user-icon" viewBox="0 0 24 24">
        <path fill-rule="evenodd" clip-rule="evenodd" d="M3.5 19C3.5 16.5147 5.51472 14.5 8 14.5H16C18.4853 14.5 20.5 16.5147 20.5 19V21C20.5 21.2761 20.2761 21.5 20 21.5C19.7239 21.5 19.5 21.2761 19.5 21V19C19.5 17.067 17.933 15.5 16 15.5H8C6.067 15.5 4.5 17.067 4.5 19V21C4.5 21.2761 4.27614 21.5 4 21.5C3.72386 21.5 3.5 21.2761 3.5 21V19Z"/>
        <path fill-rule="evenodd" clip-rule="evenodd" d="M7.5 7C7.5 4.51472 9.51472 2.5 12 2.5C14.4853 2.5 16.5 4.51472 16.5 7C16.5 9.48528 14.4853 11.5 12 11.5C9.51472 11.5 7.5 9.48528 7.5 7ZM12 3.5C10.067 3.5 8.5 5.067 8.5 7C8.5 8.933 10.067 10.5 12 10.5C13.933 10.5 15.5 8.933 15.5 7C15.5 5.067 13.933 3.5 12 3.5Z"/>
    </symbol>

    <symbol id="alltasks-icon" viewBox="0 0 24 24">
        <path fill-rule="evenodd" clip-rule="evenodd" d="M17.5 2C17.5 1.72386 17.7239 1.5 18 1.5H22C22.2761 1.5 22.5 1.72386 22.5 2V18.7742C22.5 18.8673 22.474 18.9585 22.425 19.0377L20.425 22.2635C20.3338 22.4105 20.173 22.5 20 22.5C19.827 22.5 19.6662 22.4105 19.575 22.2635L17.575 19.0377C17.526 18.9585 17.5 18.8673 17.5 18.7742V2ZM18.5 2.5V18.6318L20 21.0511L21.5 18.6318V2.5H18.5Z"/>
        <path fill-rule="evenodd" clip-rule="evenodd" d="M1.5 4C1.5 2.61929 2.61929 1.5 4 1.5H8C8.13261 1.5 8.25979 1.55268 8.35355 1.64645L15.3536 8.64645C15.4473 8.74021 15.5 8.86739 15.5 9V20C15.5 21.3807 14.3807 22.5 13 22.5H4C2.61929 22.5 1.5 21.3807 1.5 20V4ZM4 2.5C3.17157 2.5 2.5 3.17157 2.5 4V20C2.5 20.8284 3.17157 21.5 4 21.5H13C13.8284 21.5 14.5 20.8284 14.5 20V9.20711L7.79289 2.5H4Z"/>
        <path fill-rule="evenodd" clip-rule="evenodd" d="M8 1.5C8.27614 1.5 8.5 1.72386 8.5 2V8.5H15C15.2761 8.5 15.5 8.72386 15.5 9C15.5 9.27614 15.2761 9.5 15 9.5H8C7.72386 9.5 7.5 9.27614 7.5 9V2C7.5 1.72386 7.72386 1.5 8 1.5Z"/>
        <path fill-rule="evenodd" clip-rule="evenodd" d="M4.5 14C4.5 13.7239 4.72386 13.5 5 13.5H9C9.27614 13.5 9.5 13.7239 9.5 14C9.5 14.2761 9.27614 14.5 9 14.5H5C4.72386 14.5 4.5 14.2761 4.5 14Z"/>
        <path fill-rule="evenodd" clip-rule="evenodd" d="M4.5 18C4.5 17.7239 4.72386 17.5 5 17.5H12C12.2761 17.5 12.5 17.7239 12.5 18C12.5 18.2761 12.2761 18.5 12 18.5H5C4.72386 18.5 4.5 18.2761 4.5 18Z"/>
    </symbol>

    <symbol id="category-icon" viewBox="0 0 24 24">
        <path fill-rule="evenodd" clip-rule="evenodd" d="M2.5 10C2.5 9.72386 2.72386 9.5 3 9.5H17C17.2761 9.5 17.5 9.72386 17.5 10C17.5 10.2761 17.2761 10.5 17 10.5H3C2.72386 10.5 2.5 10.2761 2.5 10Z"/>
        <path fill-rule="evenodd" clip-rule="evenodd" d="M2.5 6C2.5 5.72386 2.72386 5.5 3 5.5H21C21.2761 5.5 21.5 5.72386 21.5 6C21.5 6.27614 21.2761 6.5 21 6.5H3C2.72386 6.5 2.5 6.27614 2.5 6Z"/>
        <path fill-rule="evenodd" clip-rule="evenodd" d="M2.5 14C2.5 13.7239 2.72386 13.5 3 13.5H21C21.2761 13.5 21.5 13.7239 21.5 14C21.5 14.2761 21.2761 14.5 21 14.5H3C2.72386 14.5 2.5 14.2761 2.5 14Z"/>
        <path fill-rule="evenodd" clip-rule="evenodd" d="M2.5 18C2.5 17.7239 2.72386 17.5 3 17.5H17C17.2761 17.5 17.5 17.7239 17.5 18C17.5 18.2761 17.2761 18.5 17 18.5H3C2.72386 18.5 2.5 18.2761 2.5 18Z"/>
    </symbol>
</svg>